<?xml version="1.0" standalone="no"?>
<!DOCTYPE svg PUBLIC "-//W3C//DTD SVG 20010904//EN"
 "http://www.w3.org/TR/2001/REC-SVG-20010904/DTD/svg10.dtd">
<svg version="1.0" xmlns="http://www.w3.org/2000/svg"
 width="996.000000pt" height="862.000000pt" viewBox="0 0 996.000000 862.000000"
 preserveAspectRatio="xMidYMid meet">

<g transform="translate(0.000000,862.000000) scale(0.100000,-0.100000)"
fill="#1F76D2" stroke="none">
<path d="M4750 8202 c-159 -53 -263 -157 -310 -311 -20 -62 -20 -100 -20
-1540 0 -1278 2 -1485 15 -1534 31 -120 87 -200 185 -263 158 -102 353 -106
516 -11 101 59 159 134 200 257 18 52 19 123 22 1500 1 877 -1 1471 -7 1513
-22 157 -124 296 -268 364 -72 35 -86 38 -178 40 -76 2 -113 -1 -155 -15z"/>
<path d="M3415 7159 c-276 -68 -776 -405 -1101 -742 -583 -604 -904 -1261
-1020 -2087 -26 -183 -26 -737 -1 -935 104 -800 440 -1503 986 -2067 653 -675
1536 -1079 2440 -1117 922 -39 1756 231 2451 793 249 202 531 503 722 769 437
610 675 1379 656 2116 -3 142 -6 161 -28 206 -21 42 -34 55 -85 80 l-60 30
-1160 3 c-1197 3 -1333 0 -1441 -37 -157 -53 -354 -219 -417 -351 -49 -104
-70 -189 -70 -295 -1 -152 36 -225 125 -245 37 -7 348 -10 1063 -10 674 1
1019 -2 1037 -9 73 -28 75 -110 7 -291 -96 -257 -258 -545 -439 -780 -97 -126
-379 -406 -507 -503 -282 -214 -622 -383 -953 -472 -419 -113 -878 -123 -1302
-29 -422 93 -806 280 -1143 558 -532 438 -859 1000 -977 1681 -20 114 -22 166
-23 415 0 229 4 306 18 395 115 693 415 1246 936 1718 122 111 285 231 436
322 218 131 298 209 339 328 20 59 21 202 2 272 -59 223 -262 340 -491 284z"/>
</g>
</svg>
